<svg xmlns="http://www.w3.org/2000/svg"  viewBox="0 0 50 50" width="50px" height="50px"><path fill="#fff"  d="M 27.009766 2.0957031 A 1.0001 1.0001 0 0 0 26.019531 3.1074219 C 26.106491 10.462578 26.536314 15.641894 29.546875 19.109375 C 32.557436 22.576856 37.832365 23.887304 46.892578 23.986328 A 1.0001 1.0001 0 0 0 47.900391 22.896484 C 46.900129 11.880022 38.125788 3.1030018 27.109375 2.0996094 A 1.0001 1.0001 0 0 0 27.009766 2.0957031 z M 22.900391 2.1015625 A 1.0001 1.0001 0 0 0 22.824219 2.1054688 C 11.83887 3.1381496 3.0967433 11.901881 2.0996094 22.896484 A 1.0001 1.0001 0 0 0 3.1074219 23.986328 C 12.140973 23.882244 17.402083 22.569185 20.402344 19.101562 C 23.402605 15.63394 23.828552 10.459224 23.916016 3.1132812 A 1.0001 1.0001 0 0 0 22.900391 2.1015625 z M 28.107422 4.3066406 C 37.211156 5.6675668 44.352748 12.816097 45.699219 21.923828 C 37.699475 21.711556 33.337899 20.426319 31.056641 17.798828 C 28.813747 15.215525 28.25159 10.765952 28.107422 4.3066406 z M 21.830078 4.3144531 C 21.685654 10.764281 21.123254 15.210297 18.888672 17.792969 C 16.616005 20.419658 12.271642 21.704658 4.3007812 21.921875 C 5.6447508 12.835983 12.756727 5.6983982 21.830078 4.3144531 z M 3.1074219 26.013672 A 1.0001 1.0001 0 0 0 2.0996094 27.103516 C 3.0977695 38.098955 11.838804 46.862885 22.824219 47.894531 A 1.0001 1.0001 0 0 0 23.916016 46.886719 C 23.828552 39.540776 23.4026 34.366193 20.402344 30.898438 C 17.402088 27.430681 12.140994 26.11725 3.1074219 26.013672 z M 46.892578 26.013672 C 37.832365 26.112692 32.557299 27.423141 29.546875 30.890625 C 26.536451 34.358109 26.106997 39.537453 26.019531 46.892578 A 1.0001 1.0001 0 0 0 27.109375 47.900391 C 38.124827 46.89699 46.89909 38.121869 47.900391 27.105469 A 1.0001 1.0001 0 0 0 46.892578 26.013672 z M 45.699219 28.076172 C 44.351927 37.183958 37.210283 44.332436 28.107422 45.693359 C 28.251994 39.234016 28.813853 34.784472 31.056641 32.201172 C 33.337792 29.573683 37.699501 28.288442 45.699219 28.076172 z M 4.3007812 28.078125 C 12.271619 28.294919 16.616 29.580231 18.888672 32.207031 C 21.123259 34.789811 21.685653 39.235688 21.830078 45.685547 C 12.756817 44.302371 5.645467 37.165047 4.3007812 28.078125 z"/></svg>