<?xml version="1.0" encoding="utf-8"?>
<!-- Svg Vector Icons : http://www.onlinewebfonts.com/icon -->
<!DOCTYPE svg PUBLIC "-//W3C//DTD SVG 1.1//EN" "http://www.w3.org/Graphics/SVG/1.1/DTD/svg11.dtd">
<svg version="1.1" xmlns="http://www.w3.org/2000/svg" xmlns:xlink="http://www.w3.org/1999/xlink" x="0px" y="0px" viewBox="0 0 256 256" enable-background="new 0 0 256 256" xml:space="preserve">
<metadata> Svg Vector Icons : http://www.onlinewebfonts.com/icon </metadata>
<g><g><g><path fill="#fff" d="M117.2,10.4c-23,2.4-43.7,10.6-62,24.8c-5,3.9-16,14.9-19.9,19.9c-18.6,24.1-27.5,53.8-24.8,82.8c3.9,41.7,28.4,77.6,65.7,95.9c8.4,4.1,14.1,6.2,22.1,8.3c20.5,5.2,39.1,5.2,59.6,0c8-2,13.6-4.1,22.1-8.3c23.4-11.4,42.5-30.5,53.9-53.9c5.4-11,8.7-21.1,10.6-32.5c6.4-38.4-6.4-76.8-34.3-104c-9.5-9.2-19.3-16-31.1-21.7c-10.8-5.2-21.8-8.6-33.5-10.4C138.4,10.2,123.6,9.7,117.2,10.4z M138,25.2c20,1.9,39.1,9.8,54.8,22.4c33.6,27.1,46.8,72.2,33.1,113c-8.8,26.2-27.6,47.8-52.5,60c-40.3,19.8-88.4,11.3-119.6-21C14.1,158.4,15.3,93.4,56.4,53.7C78.2,32.6,107.9,22.2,138,25.2z"/><path fill="#fff" d="M113.3,46.8v7.4h7.4h7.4v-7.4v-7.4h-7.4h-7.4V46.8z"/><path fill="#fff" d="M139.5,77.6L93.2,93.1l-15.5,46.6c-8.5,25.6-15.5,46.7-15.5,46.9c0,0.4,92.8-30.5,93.4-31.2c0.9-0.8,31.5-93.4,30.9-93.4C186.1,62,165,69,139.5,77.6z M128,149.1c0,0.2-41.9,14.3-42.5,14.3c-0.1,0,3-9.7,6.9-21.5l7.1-21.5l14.2,14.2C121.6,142.5,128,149,128,149.1z"/><path fill="#fff" d="M69,76.3v7.4h7.4h7.4v-7.4v-7.4h-7.4H69V76.3z"/><path fill="#fff" d="M37.7,118.7v7.4H45h7.4v-7.4v-7.4H45h-7.4V118.7L37.7,118.7z"/><path fill="#fff" d="M201.8,135.3v7.4h7.4h7.4v-7.4v-7.4h-7.4h-7.4V135.3z"/><path fill="#fff" d="M172.3,179.6v7.4h7.4h7.4v-7.4v-7.4h-7.4h-7.4V179.6z"/><path fill="#fff" d="M128,209.1v7.4h7.4h7.4v-7.4v-7.4h-7.4H128V209.1z"/></g></g></g>
</svg>