<?xml version="1.0" encoding="utf-8"?>
<!-- Svg Vector Icons : http://www.onlinewebfonts.com/icon -->
<!DOCTYPE svg PUBLIC "-//W3C//DTD SVG 1.1//EN" "http://www.w3.org/Graphics/SVG/1.1/DTD/svg11.dtd">
<svg version="1.1" xmlns="http://www.w3.org/2000/svg" xmlns:xlink="http://www.w3.org/1999/xlink" x="0px" y="0px" viewBox="0 0 256 256" enable-background="new 0 0 256 256" xml:space="preserve">
<metadata> Svg Vector Icons : http://www.onlinewebfonts.com/icon </metadata>
<g> <path fill="#000000" d="M197.3,85.6c-13.1,0-23.4,10.3-23.4,23.4c0,13.2,10.3,23.5,23.4,23.5c13.2,0,23.5-10.3,23.5-23.5 C220.8,95.9,210.5,85.6,197.3,85.6L197.3,85.6z M197.3,123.5c-8.2,0-14.4-6.2-14.4-14.4c0-8.2,6.2-14.4,14.4-14.4 c8.2,0,14.4,6.2,14.4,14.4C211.7,117.3,205.5,123.5,197.3,123.5z M58.7,85.6c-13.1,0-23.5,10.3-23.5,23.4 c0,13.2,10.3,23.5,23.5,23.5c13.1,0,23.4-10.3,23.4-23.5C82.1,95.9,71.8,85.6,58.7,85.6L58.7,85.6z M58.7,123.5 c-8.2,0-14.4-6.2-14.4-14.4c0-8.2,6.2-14.4,14.4-14.4c8.2,0,14.4,6.2,14.4,14.4C73,117.3,66.9,123.5,58.7,123.5z M183,58.7 c0-13.2-10.3-23.5-23.5-23.5s-23.4,10.3-23.4,23.5c0,13.1,10.3,23.4,23.4,23.4C172.7,82.1,183,71.8,183,58.7z M159.5,73 c-8.2,0-14.4-6.2-14.4-14.4c0-8.2,6.2-14.4,14.4-14.4c8.2,0,14.4,6.2,14.4,14.4C173.9,66.9,167.7,73,159.5,73z M96.5,35.2 C83.3,35.2,73,45.5,73,58.7c0,13.1,10.3,23.4,23.5,23.4c13.1,0,23.4-10.3,23.4-23.4C119.9,45.5,109.6,35.2,96.5,35.2z M96.5,73 c-8.2,0-14.4-6.2-14.4-14.4c0-8.2,6.2-14.4,14.4-14.4c8.2,0,14.4,6.2,14.4,14.4C110.9,66.9,104.7,73,96.5,73z M128,10 C62.9,10,10,62.9,10,128s52.9,118,118,118c13.1,0,23.4-10.3,23.4-23.4c0-6.1-2.3-11.7-6.4-15.8c-2.4-2.4-3.7-5.7-3.7-9.4 c0-8.2,6.2-14.4,14.4-14.4h22.7c37.3,0,67.6-30.3,67.6-67.6C246,57.3,193.1,10,128,10L128,10z M178.4,173.9h-22.7 c-13.1,0-23.4,10.3-23.4,23.5c0,6.1,2.3,11.7,6.4,15.8c2.4,2.4,3.7,5.7,3.7,9.4c0,8.2-6.2,14.4-14.4,14.4 c-60.1,0-108.9-48.9-108.9-108.9C19.1,67.9,67.9,19.1,128,19.1c60.1,0,108.9,43.2,108.9,96.3C236.9,147.7,210.7,173.9,178.4,173.9z "/></g>
</svg>