<?xml version="1.0" encoding="utf-8"?>
<!-- Svg Vector Icons : http://www.onlinewebfonts.com/icon -->
<!DOCTYPE svg PUBLIC "-//W3C//DTD SVG 1.1//EN" "http://www.w3.org/Graphics/SVG/1.1/DTD/svg11.dtd">
<svg version="1.1" xmlns="http://www.w3.org/2000/svg" xmlns:xlink="http://www.w3.org/1999/xlink" x="0px" y="0px" viewBox="0 0 256 256" enable-background="new 0 0 256 256" xml:space="preserve">
<metadata> Svg Vector Icons : http://www.onlinewebfonts.com/icon </metadata>
<g><g><g><path fill="#000000" d="M104.4,38.1c-25,2.6-45.8,12.7-63.5,30.8C24.7,85.5,14.3,107,10.9,131.1c-1.2,8.4-1.2,23.8,0,31.9c1.9,12.2,5.2,22.8,10.5,33.9c3,6.1,8.2,14.8,9.5,15.9c0.5,0.4,1.8-0.7,6.8-5.9c3.4-3.6,6.2-6.7,6.3-6.9c0.1-0.2-0.9-2-2.1-3.8c-3.1-4.8-7.5-14.2-9.5-20.1c-3.5-10.7-4.8-20.6-4.4-32.4c0.7-19.2,6.3-36.1,17.4-51.7c3.6-5.1,14.1-15.6,19.2-19.2C86.5,57.1,112,53,136.7,61c5.1,1.6,17.6,7.6,17.9,8.5c0.1,0.3-2,2.9-4.6,5.8l-4.8,5.3l1.5,0.2c3.6,0.6,38.2,3.7,38.3,3.5c0.4-0.3-3.7-42.9-4.1-43.4c-0.2-0.2-3.2,2.9-6.7,6.8c-7.1,8.1-6,7.6-10.7,4.6c-9.6-6.2-23.2-11.2-36-13.4C123.2,38.2,108.4,37.6,104.4,38.1z"/><path fill="#000000" d="M101.2,89.1l-0.1,9.3L97,99.8c-4,1.2-8.5,3.3-12,5.5l-1.8,1.1l-6.3-6.7l-6.3-6.7l-5.7,6.1c-3.1,3.3-6,6.5-6.3,7c-0.6,0.8-0.1,1.5,5.5,7.4l6.2,6.6l-2.4,4.8c-1.3,2.7-3,6.9-3.7,9.5l-1.3,4.7l-8.9,0.1l-8.9,0.1v9.5v9.5h9.1c8.9,0,9.1,0,9.1,1c0,1.8,3.3,11.1,5.2,14.6l1.9,3.5l-6.1,6.4c-3.3,3.5-6.1,6.6-6.1,6.9c0,0.3,2.8,3.5,6.2,7.2l6.2,6.7l1.9-2c1-1.1,3.9-4.1,6.3-6.7l4.4-4.6l4.1,2.3c2.2,1.3,6.3,3.1,9.1,4l5,1.6v9.4v9.4h9.1h9.1v-9.5v-9.5l2.1-0.5c4.4-1.1,11.3-4.1,14.4-6.3l1.4-1l6.2,6.5c3.4,3.6,6.3,6.5,6.5,6.5c0.2,0,3.2-3,6.7-6.7l6.3-6.7l-4.4-4.6c-2.5-2.6-5.3-5.6-6.3-6.7l-1.9-2l2.4-5c2.2-4.5,2.9-6.3,4.4-12.2l0.5-2h8.8h8.8v-9.5v-9.5h-8.8h-8.8l-0.5-2.1c-1.4-5.4-2.6-8.7-4.6-12.7c-1.9-3.8-2.1-4.5-1.5-5.2c0.3-0.4,3.1-3.5,6.2-6.7l5.6-6l-2.9-3.2c-1.7-1.7-4.6-4.8-6.5-6.8l-3.5-3.7l-4.4,4.6c-2.4,2.5-5.2,5.6-6.2,6.7l-2,2.1l-2.3-1.6c-2.8-1.9-9.5-4.8-12.9-5.7l-2.5-0.6v-9.5v-9.5h-9.1h-9.1L101.2,89.1z M118.2,129.5c5.2,2.4,9.8,8,11.3,13.6c0.8,3.2,0.7,9-0.4,12.4c-1.8,5.9-5.4,10.1-11,12.7c-2.9,1.3-3.6,1.5-7.9,1.5c-4.4,0-5-0.1-7.9-1.5c-11.7-5.8-15.5-20.9-7.9-32c2-2.9,6.1-6.1,9.3-7.3C107.7,127.5,114.4,127.7,118.2,129.5z"/><path fill="#000000" d="M221.1,130.1v7.4h-16.7h-16.7v11.7v11.7h16.7H221l0.1,7.4l0.1,7.4l12.3-13.1c6.8-7.3,12.4-13.3,12.4-13.4c0.1-0.2-24.5-26.5-24.8-26.5C221.1,122.7,221.1,126,221.1,130.1z"/></g></g></g>
</svg>