<?xml version="1.0" encoding="utf-8"?>
<!-- Svg Vector Icons : http://www.onlinewebfonts.com/icon -->
<!DOCTYPE svg PUBLIC "-//W3C//DTD SVG 1.1//EN" "http://www.w3.org/Graphics/SVG/1.1/DTD/svg11.dtd">
<svg version="1.1" xmlns="http://www.w3.org/2000/svg" xmlns:xlink="http://www.w3.org/1999/xlink" x="0px" y="0px" viewBox="0 0 256 256" enable-background="new 0 0 256 256" xml:space="preserve">
<metadata> Svg Vector Icons : http://www.onlinewebfonts.com/icon </metadata>
<g><g><g><path fill="#fff" d="M120.7,10.2c-17.5,2.7-29.6,8.6-41,19.9c-10,10-16.3,21.8-19.1,35.9c-1.1,5.8-1.1,18.2,0,24.4c3.8,20.3,12.9,44.3,28.2,74.5c2.7,5.2,6.1,11.8,7.7,14.5c2.4,4.2,2.7,5,2,5.3c-0.4,0.2-3.3,1-6.5,1.8c-12,3.1-21.3,7.9-27.3,13.9c-4.6,4.6-6.3,7.9-6.6,12.9c-0.1,2.9,0,4.1,0.9,6.3c6.1,16.4,37,27.5,73.3,26.4c5.4-0.2,12.2-0.7,15.2-1c25-3.4,43.1-12.2,48.7-23.5c1.4-2.9,1.6-3.6,1.6-7.5c0-3.8-0.1-4.6-1.4-7.1c-1.9-3.9-7.5-9.3-12.6-12.3c-5.2-3.1-12.7-6.1-19.8-8c-3.1-0.8-6-1.6-6.5-1.8c-0.7-0.2-0.2-1.3,2.7-6.5c7.4-13.1,18.7-36.8,24.2-51c9.4-24,13.2-42.4,11.7-55.9c-1.9-16.3-8.3-29.8-19.8-41.2c-9.8-9.8-21-16-34.4-18.9C137.5,10.3,124.3,9.7,120.7,10.2z M139.8,14.4c23,4,42.9,21.4,50.1,43.8C195,74.1,194,88.7,186,113c-5,15-11.8,30.7-21.7,50c-11.9,23.1-21.3,37.9-29,45.1c-5.8,5.5-8.7,5.5-14.4,0c-8.2-7.7-18.8-24.5-31.3-49.6c-14-28.2-22.2-50.2-25.6-69c-1.7-9.7-0.9-21.4,2.2-31c7.8-24,29.5-41.8,54.5-44.7C125.6,13.2,134.3,13.5,139.8,14.4z M105.1,193.6c5,7.6,8.9,12.6,13.3,16.7c7.6,7.2,12,7.2,19.7-0.1c4.3-4,8.2-9.1,13.1-16.6c2-3,3.9-5.6,4.2-5.6c0.3,0,3.1,0.7,6.2,1.4c16.6,4.3,27.5,10.9,31.8,19c1.7,3.2,1.6,7.9-0.2,11.3c-4.6,8.8-18.3,16.2-37,20c-9.5,2-16.5,2.6-28.1,2.6c-18,0-32.6-2.5-45.7-7.9c-9.2-3.8-17-9.7-19.6-14.9c-1.6-3.3-1.6-8.1,0-11.2c4.2-8.1,15-14.7,31.6-19c3-0.8,5.7-1.4,6.1-1.4C101.1,188,102.7,189.9,105.1,193.6z"/><path fill="#fff" d="M119.8,38.3c-9.7,2.1-18.5,8-24,16.1c-5,7.3-6.9,13.4-6.9,22.4c0,8.1,1.5,13.8,5.5,20.6c2.4,4,10,11.3,14.2,13.8c12.9,7.2,28.5,6.8,40.8-1c3.6-2.3,8.3-6.9,10.9-10.5c9.3-13.1,9.7-30.6,1-44.1c-5.1-8-12.3-13.4-21.7-16.4C134.4,37.5,125,37.1,119.8,38.3z M134.4,41.5c11.7,2.2,21.2,9.6,26.1,20.1c2.5,5.2,3.4,9.4,3.3,15.4c0,14.1-7.5,26-20.3,32.1c-12.1,5.9-25.5,4.6-36.7-3.4c-12-8.5-17.5-24.8-13.2-39.3C98.7,49.3,117,38.2,134.4,41.5z"/></g></g></g>
</svg>