<?xml version="1.0" encoding="utf-8"?>
<!-- Svg Vector Icons : http://www.onlinewebfonts.com/icon -->
<!DOCTYPE svg PUBLIC "-//W3C//DTD SVG 1.1//EN" "http://www.w3.org/Graphics/SVG/1.1/DTD/svg11.dtd">
<svg version="1.1" xmlns="http://www.w3.org/2000/svg" xmlns:xlink="http://www.w3.org/1999/xlink" x="0px" y="0px" viewBox="0 0 256 256" enable-background="new 0 0 256 256" xml:space="preserve">
<metadata> Svg Vector Icons : http://www.onlinewebfonts.com/icon </metadata>
<g><g><g><path fill="#fff" d="M119.6,10.1c-17.4,1.6-32.1,6.4-44.4,14.5c-5.1,3.3-13.8,12-17.1,16.9C50.7,52.9,47,65.9,46.8,81c0,7,0,8,1.2,12.4c5.8,21.8,23.6,56.6,64.2,126c5.9,10.2,11.8,20.2,13.1,22.5c1.2,2.3,2.4,4.1,2.5,4.1c0.1,0,0.8-1.1,1.6-2.4c0.7-1.3,8.2-14,16.5-28.3c36-61.7,52.1-92.8,59.6-114.6c3.6-10.6,4.3-15.8,3.2-25.9c-1.2-12.8-4.9-23.6-11.3-33.5c-3.1-4.7-11.9-13.4-16.9-16.7c-10.5-6.9-22.7-11.4-37-13.6C138.9,10.3,123.8,9.7,119.6,10.1z M133.9,58.6c11.5,2.7,19.9,13.4,19.9,25.2c0,9.3-5.5,18.4-13.7,22.8c-7.7,4-15.6,4.1-23.6,0.3c-8.7-4.2-14.5-13.4-14.5-23.1C102,67.2,117.7,54.8,133.9,58.6z"/></g></g></g>
</svg>