<?xml version="1.0" encoding="utf-8"?>
<!-- Svg Vector Icons : http://www.onlinewebfonts.com/icon -->
<!DOCTYPE svg PUBLIC "-//W3C//DTD SVG 1.1//EN" "http://www.w3.org/Graphics/SVG/1.1/DTD/svg11.dtd">
<svg version="1.1" xmlns="http://www.w3.org/2000/svg" xmlns:xlink="http://www.w3.org/1999/xlink" x="0px" y="0px" viewBox="0 0 256 256" enable-background="new 0 0 256 256" xml:space="preserve">
<metadata> Svg Vector Icons : http://www.onlinewebfonts.com/icon </metadata>
<g><g><g><path fill="#000000" d="M116.7,10.3C88.9,13.2,64,24.9,44.4,44.5c-18.8,18.8-29.9,41.6-33.9,69c-0.8,5.5-0.8,23.6,0,29.1c3.9,27.4,15.1,50.3,33.9,69c18.7,18.7,41.7,30,69,33.9c5.4,0.8,23.6,0.8,29.1,0c22.6-3.2,42.9-11.8,59.6-25.4c23.8-19.2,38.8-46.1,43.3-77.5c0.8-5.5,0.8-23.6,0-29.1c-3.9-27.3-15.1-50.3-33.9-69c-18.3-18.3-40.6-29.5-66.9-33.5C138.8,10.1,122.6,9.6,116.7,10.3z M162.7,48.1c5.5,1.8,9.7,6,11.5,11.5c0.7,2.3,0.9,4.2,0.9,9.1v6.2H170H165V71v-3.9h-37.6H89.7v54.1v54.1l42.7-0.2l42.7-0.1v9.3c0,8-0.1,9.7-0.9,12.2c-1.8,5.5-6,9.7-11.5,11.5c-2.8,0.9-4.2,0.9-35.4,0.9c-31.2,0-32.6,0-35.4-0.9c-5.5-1.8-9.7-6-11.5-11.5c-0.9-2.9-0.9-4.2-0.9-68.4c0-64.2,0-65.5,0.9-68.4c1.7-5.5,5.9-9.7,11.3-11.5c2.6-0.9,4.4-0.9,35.4-0.9C158.5,47.2,159.9,47.2,162.7,48.1z M120.6,84.6v6.9h-11.1H98.4v-6.9v-6.9h11.1h11.1V84.6z M176.5,88.9v5.7l3.1,1c1.7,0.5,4.3,1.6,5.8,2.4l2.7,1.4l4-4l4-4l4.2,4.2l4.2,4.2l-4,4l-4,4.1l1.3,2.3c0.7,1.2,1.8,3.8,2.4,5.6l1.1,3.4h5.6h5.7v5.8v5.8h-5.7h-5.6l-1.1,3.4c-0.6,1.8-1.7,4.4-2.4,5.6l-1.3,2.3l4,4l4,4.1l-4.2,4.2l-4.2,4.2l-4-4l-4-4l-2.7,1.4c-1.5,0.8-4.1,1.9-5.8,2.4l-3.1,1v5.7v5.7h-5.8H165v-5.7v-5.7l-3.1-1c-1.7-0.5-4.3-1.6-5.7-2.3l-2.5-1.3l-4,4l-4.1,4l-4.2-4.2l-4.2-4.2l4-4l4-4l-1.5-2.9c-0.9-1.6-1.9-4.2-2.4-5.7l-0.7-2.8l-5.9-0.1l-5.8-0.1V125v-5.7l5.8-0.1l5.9-0.1l0.7-2.8c0.5-1.5,1.5-4.1,2.4-5.7l1.5-2.9l-4-4l-4-4l4.2-4.2l4.2-4.1l3.8,4.1l3.8,4.1l3.2-1.6c1.8-0.9,4.4-2,5.9-2.4l2.6-0.7v-5.8v-5.7h5.8h5.8L176.5,88.9L176.5,88.9z M120.6,120.2v6.9h-11.1H98.4v-6.9v-6.9h11.1h11.1V120.2z M120.6,157.1v6.9h-11.1H98.4v-6.9v-6.9h11.1h11.1V157.1z"/><path fill="#000000" d="M124.1,184.5c-2,0.9-4.3,3.7-4.7,5.6c-0.6,3.6,0.5,6.4,3.5,8.4c7.1,4.9,15.8-3.8,10.9-10.9c-0.6-0.8-1.6-1.9-2.3-2.4C130,184,126,183.6,124.1,184.5z"/><path fill="#000000" d="M167.3,112.7c-5.3,1.6-9.2,7-9.2,12.6c0,2.8,1.6,6.5,3.8,8.6c3.1,3,4.7,3.6,8.9,3.6c3.2,0,4-0.2,6.2-1.4c4.2-2.3,6.4-6.1,6.5-11.2c0.1-5.4-3.8-10.7-9.1-12.1C172.3,112.3,169,112.2,167.3,112.7z"/></g></g></g>
</svg>