<?xml version="1.0" encoding="utf-8"?>
<!-- Svg Vector Icons : http://www.onlinewebfonts.com/icon -->
<!DOCTYPE svg PUBLIC "-//W3C//DTD SVG 1.1//EN" "http://www.w3.org/Graphics/SVG/1.1/DTD/svg11.dtd">
<svg version="1.1" xmlns="http://www.w3.org/2000/svg" xmlns:xlink="http://www.w3.org/1999/xlink" x="0px" y="0px" viewBox="0 0 256 256" enable-background="new 0 0 256 256" xml:space="preserve">
<metadata> Svg Vector Icons : http://www.onlinewebfonts.com/icon </metadata>
<g><g><g><path fill="#fff" d="M25.9,10c-5.7,0.5-7.6,1.2-10.5,3.8C9.6,19,10,10.1,10,128v106.1l1.8,3.5c1.3,2.5,3,4.3,5.6,5.9l3.7,2.3l57,0.2c41.2,0.2,58.2,0,61.2-0.6c5.1-1.2,10-5.6,11.5-10.5c0.7-2.5,0.9-27.2,0.9-107.8V22.7l-2.1-4.2c-1.6-3-3.1-4.7-5.7-6.3l-3.5-2.2L84.3,9.9C53.5,9.8,27.2,9.8,25.9,10z M135.5,104.3v78.9h-55h-55v-78.9V25.5h55h55V104.3z M85,199.4c1.6,0.5,4.3,2,5.9,3.5c8.2,7.5,6.6,20.3-3.1,25.5c-5,2.6-11.8,2.2-15.9-1.1c-8.5-6.8-9.4-16.6-2.2-23.8C74.1,199.2,79.2,197.8,85,199.4z"/><path fill="#fff" d="M214.2,42.7c-7.2,5.8-7.1,5.2-2.8,10c5.2,5.8,10.8,15.3,13.8,23.5c7.5,19.8,6.3,44.1-2.8,62.9c-3.2,6.4-10.5,17.2-13.2,19.5c-0.7,0.5-1.3,1.3-1.3,1.7c0,0.6,10.7,9.2,11.6,9.2c1,0,10.4-12.5,14-18.7c16.9-29.2,16.7-65.2-0.7-94.3c-4-6.8-12.2-17-13.6-16.9C218.7,39.4,216.4,41,214.2,42.7z"/><path fill="#fff" d="M177.7,71.3c-2.9,2.3-5.2,4.4-5.2,4.6s1.1,2,2.4,3.8c6.4,9.3,9.3,20.6,7.8,29.9c-1,6.1-4.5,14-8.2,18.5c-1.5,1.8-2.7,3.5-2.7,3.6c0,0.6,11.5,9.8,12.2,9.8c0.8,0,6.8-8.3,8.9-12.3c3.7-7.2,5.2-13.2,5.5-22.3c0.5-10.4-0.8-17.5-4.4-25.2c-2.8-5.9-8.9-14.8-10.2-14.8C183.2,67,180.6,69,177.7,71.3z"/></g></g></g>
</svg>