<?xml version="1.0" encoding="utf-8"?>
<!-- Svg Vector Icons : http://www.onlinewebfonts.com/icon -->
<!DOCTYPE svg PUBLIC "-//W3C//DTD SVG 1.1//EN" "http://www.w3.org/Graphics/SVG/1.1/DTD/svg11.dtd">
<svg version="1.1" xmlns="http://www.w3.org/2000/svg" xmlns:xlink="http://www.w3.org/1999/xlink" x="0px" y="0px" viewBox="0 0 256 256" enable-background="new 0 0 256 256" xml:space="preserve">
<metadata> Svg Vector Icons : http://www.onlinewebfonts.com/icon </metadata>
<g><g><g><path fill="#000000" d="M124.5,16.4C116.4,21,104,25.8,93.9,28c-8.6,1.9-15.6,2.6-25.1,2.6c-19.4,0-35.3-4-54.3-13.4L10,14.9l0.2,32.4c0.2,34.8,0.3,37,2.9,51.2c10.2,56.6,45.3,105.4,96.4,134.1c5.3,2.9,17.7,9,18.5,9c0.3,0,4.3-1.8,8.9-4.1c19.4-9.5,35.6-20.9,50.7-35.5c29-28.1,48.2-64.1,55.3-103.4c2.6-14.2,2.7-16.4,2.9-51.2l0.2-32.4l-4.6,2.3c-18.9,9.5-34.8,13.4-54,13.4c-8.6,0-13.6-0.4-20.7-1.7c-11.6-2.1-25.1-6.9-35.1-12.4c-2.1-1.2-3.8-2.1-3.8-2C127.8,14.5,126.3,15.4,124.5,16.4z M132.1,27.8c16.6,8.3,35.5,12.7,55.1,12.6c17.2,0,32.2-2.9,48.3-9.6c0.7-0.3,0.8,0.7,0.8,18.2c0,19.5-0.5,30.1-1.7,39.3c-4.3,33.5-18.3,65.4-40.4,92.2c-5.9,7.1-18.8,19.8-26.1,25.6c-10.7,8.6-23.8,16.9-35.3,22.4l-4.7,2.3l-4.7-2.3c-11.6-5.5-24.6-13.8-35.4-22.4c-8-6.4-21.5-19.8-27.8-27.8c-19.4-24.3-32-51.8-37.3-81.3c-2.4-13.2-2.7-17.4-2.9-42.8c-0.2-23.2-0.2-23.9,0.6-23.5c24.5,9.9,49.1,12.3,74.1,7.1c9.2-1.9,21.5-6.2,29.2-10.1c1.9-1,3.7-1.8,4.1-1.8C128.2,26,130.1,26.7,132.1,27.8z"/><path fill="#000000" d="M180.5,82.9c-0.4,0.1-13.4,12.9-29,28.5l-28.3,28.3L110,126.6c-7.2-7.2-13.7-13.4-14.5-13.9c-3-1.6-6.7,0.9-6.7,4.6c0,1.9,0.1,2,17.1,19.1l17.2,17.2l31.2-31.2c17.2-17.2,31.5-31.8,31.9-32.5c0.8-1.6,0.8-2.9,0-4.5C185.2,83.3,182.6,82.2,180.5,82.9z"/></g></g></g>
</svg>