<?xml version="1.0" encoding="utf-8"?>
<!-- Svg Vector Icons : http://www.onlinewebfonts.com/icon -->
<!DOCTYPE svg PUBLIC "-//W3C//DTD SVG 1.1//EN" "http://www.w3.org/Graphics/SVG/1.1/DTD/svg11.dtd">
<svg version="1.1" xmlns="http://www.w3.org/2000/svg" xmlns:xlink="http://www.w3.org/1999/xlink" x="0px" y="0px" viewBox="0 0 256 256" enable-background="new 0 0 256 256" xml:space="preserve">
<metadata> Svg Vector Icons : http://www.onlinewebfonts.com/icon </metadata>
<g><g><g><path fill="#000000" d="M11.4,28.8L10,30.2v80.4v80.4l1.4,1.3l1.3,1.4h55.5h55.4v13.1v13.1h-20.5H82.6l-1.3,1.4c-1.8,1.7-1.8,4.3,0,6l1.3,1.4H128h45.4l1.3-1.4c1.8-1.7,1.8-4.3,0-6l-1.3-1.4h-20.5h-20.5v-13.1v-13.1h55.5h55.5l1.3-1.4l1.4-1.3v-80.4V30.2l-1.4-1.3l-1.3-1.4H128H12.7L11.4,28.8z M237.3,110.5v74.3H128H18.7v-74.3V36.2H128h109.3V110.5z"/><path fill="#000000" d="M193.6,71.9c-2.7,0.9-7.3,5.6-8.1,8.4c-0.8,2.7-0.8,5.7-0.2,7.5c0.5,1.3-0.9,2.6-24.6,23.4c-13.9,12.1-25.5,22.2-25.9,22.5c-0.3,0.3-1.5,0.1-2.6-0.4c-4.1-1.7-9-0.7-12.8,2.7l-2.5,2.3L94,132.5c-22.2-5.6-22.8-5.7-23.2-7.2c-1.4-5.9-6.9-10.4-12.7-10.4c-3.4,0-6.2,1.3-9,4.1c-5.6,5.5-5.6,12.5,0,18c5.3,5.3,12.1,5.5,17.6,0.5l2.5-2.3l22.8,5.7c22.2,5.6,22.8,5.7,23.2,7.2c1.4,5.9,6.9,10.4,12.7,10.4c3.4,0,6.2-1.3,9-4.1c3.7-3.7,5.1-8.5,3.6-12.5c-0.5-1.3,0.9-2.6,24.6-23.4c13.9-12.1,25.5-22.2,25.9-22.5c0.3-0.3,1.5-0.1,2.6,0.4c7.6,3.2,17.3-3.7,17.3-12.3c0-3.4-1.3-6.2-4.1-9C203.1,71.4,198.6,70.3,193.6,71.9z"/></g></g></g>
</svg>