<?xml version="1.0" encoding="utf-8"?>
<!-- Svg Vector Icons : http://www.onlinewebfonts.com/icon -->
<!DOCTYPE svg PUBLIC "-//W3C//DTD SVG 1.1//EN" "http://www.w3.org/Graphics/SVG/1.1/DTD/svg11.dtd">
<svg version="1.1" xmlns="http://www.w3.org/2000/svg" xmlns:xlink="http://www.w3.org/1999/xlink" x="0px" y="0px" viewBox="0 0 256 256" enable-background="new 0 0 256 256" xml:space="preserve">
<metadata> Svg Vector Icons : http://www.onlinewebfonts.com/icon </metadata>
<g> <path fill="#fff" d="M125.1,194.6h14.1c0,0,4.3-0.5,6.4-2.8c2.1-2.2,2.1-6.2,2.1-6.2s-0.3-18.9,8.5-21.7 c8.7-2.8,19.8,18.3,31.6,26.4c9,6.2,15.8,4.9,15.8,4.9l31.6-0.4c0,0,16.5-1,8.7-14c-0.6-1-4.4-9.6-23.3-27.1 c-19.8-18.3-17.1-15.4,6.6-47.1c14.4-19.3,20.4-31.1,18.4-36.1c-1.6-4.7-12.4-3.5-12.4-3.5L197.8,67c0,0-2.7-0.3-4.6,0.9 c-1.9,1.2-3.1,3.8-3.1,3.8s-5.6,15-13.1,27.7c-16,26.8-22.3,28.3-24.8,26.5c-5.9-3.8-4.4-15.5-4.4-23.9c0-26,4-36.9-7.7-39.7 c-3.8-0.9-6.7-1.5-16.6-1.6c-12.7-0.1-23.4,0.1-29.5,3.1c-4,2-7.1,6.4-5.3,6.6c2.4,0.3,7.7,1.4,10.5,5.3c3.7,5,3.5,16.1,3.5,16.1 s2.1,30.6-4.9,34.4c-4.9,2.6-11.4-2.8-25.5-27.1C65.2,86.8,59.7,73,59.7,73s-1-2.5-2.9-4c-2.2-1.6-5.5-2.2-5.5-2.2l-33.8,0.3 c0,0-5,0.2-6.8,2.4c-1.6,1.9-0.2,6-0.2,6s26.4,61.8,56.4,93c27.4,28.5,58.6,26.7,58.6,26.7L125.1,194.6L125.1,194.6z"/></g>
</svg>